<svg version="1.1" xmlns="http://www.w3.org/2000/svg" viewBox="0 0 1273.747968553 768.6384494522038" width="2547.495937106" height="1537.2768989044075" filter="invert(93%) hue-rotate(180deg)">
  <!-- svg-source:excalidraw -->
  
  <defs>
    <style>
      @font-face {
        font-family: "Virgil";
        src: url("https://excalidraw.com/Virgil.woff2");
      }
      @font-face {
        font-family: "Cascadia";
        src: url("https://excalidraw.com/Cascadia.woff2");
      }
    </style>
  </defs>
  <rect x="0" y="0" width="1273.747968553" height="768.6384494522038" fill="#ffffff"></rect><g stroke-linecap="round" transform="translate(362.59814453125 217.03765167833075) rotate(0 91.47857666015625 253.77779079097297)"><path d="M1.26 0.45 C53.44 -0.06, 108.38 -1.24, 182.94 -1.46 M0.41 0.03 C36.66 -1.29, 74.59 0.56, 182.89 0.39 M182.4 0.68 C182.03 182.23, 181.25 365.96, 182.87 507.15 M182.96 0.25 C182.11 128.39, 182.47 256.59, 182.72 507.23 M184.06 506.84 C114.5 509.14, 41.37 507.25, -0.29 507.13 M182.04 507.84 C144.15 508.2, 106.89 507.86, 0.93 508.16 M-0.46 507.2 C-0.72 325.93, -1.39 143.08, 0.44 0.51 M0.2 507.5 C0.29 333.28, 0.25 159.13, 0.39 0.11" stroke="#000000" stroke-width="1" fill="none"></path></g><g transform="translate(433.3126550613483 464.76536416674077) rotate(0 28 12.5)"><text x="0" y="18" font-family="Virgil, Segoe UI Emoji" font-size="20px" fill="#000000" text-anchor="start" style="white-space: pre;" direction="ltr">BLOC</text></g><g stroke-linecap="round" transform="translate(345.44354248046875 60.02413239122137) rotate(0 100.92312622070312 29.931785583496094)"><path d="M0.17 1.58 C55.33 -0.32, 112.83 -1.48, 201.98 0.24 M-0.15 -0.31 C45.22 0.14, 88.18 1.23, 201.47 -0.7 M201.64 0.14 C202.87 15.15, 202.26 29.89, 200.76 59.89 M201.93 -0.6 C202.08 21.4, 201.85 44.45, 201.1 59.56 M201.43 58.81 C136.77 59.36, 67.82 61.49, 1.5 58.87 M200.98 59.35 C156.76 57.5, 112.88 58.88, -0.47 60.76 M1.35 58.47 C-2.4 41.44, 1.01 26.86, -0.65 1.4 M0.54 59.95 C1.29 41.61, 0.35 21.97, 0.86 0.82" stroke="#000000" stroke-width="1" fill="none"></path></g><g transform="translate(432.8666687011719 77.45591797471747) rotate(0 13.5 12.5)"><text x="13.5" y="18" font-family="Virgil, Segoe UI Emoji" font-size="20px" fill="#000000" text-anchor="middle" style="white-space: pre;" direction="ltr">UI</text></g><g stroke-linecap="round"><g transform="translate(394.11712646484375 119.86768402696356) rotate(0 1.812191080302 51.34286050439347)"><path d="M-0.27 0.21 C0.4 17.29, 3.35 86.32, 3.9 103.4 M1.79 -0.72 C2.35 15.93, 3.18 84.2, 3.22 101.67" stroke="#000000" stroke-width="1" fill="none"></path></g><g transform="translate(394.11712646484375 119.86768402696356) rotate(0 1.812191080302 51.34286050439347)"><path d="M-6.92 74.41 C-2.77 81.1, -0.85 91.91, 1.48 100.16 M-8.08 72.6 C-2.69 82.88, 0.64 92.67, 2.35 102.64" stroke="#000000" stroke-width="1" fill="none"></path></g><g transform="translate(394.11712646484375 119.86768402696356) rotate(0 1.812191080302 51.34286050439347)"><path d="M13.6 74.25 C11.77 80.93, 7.72 91.8, 1.48 100.16 M12.44 72.43 C10.55 82.83, 6.6 92.68, 2.35 102.64" stroke="#000000" stroke-width="1" fill="none"></path></g></g><g stroke-linecap="round"><g transform="translate(484.7999859123788 214.46634233541633) rotate(0 -0.1629508821731065 -47.9760205620764)"><path d="M0.08 -0.62 C-0.06 -16.47, -1.15 -79.89, -1.33 -95.8 M-1.34 1.68 C-1.04 -14.48, 1.12 -81.58, 1.01 -97.63" stroke="#000000" stroke-width="1" fill="none"></path></g><g transform="translate(484.7999859123788 214.46634233541633) rotate(0 -0.1629508821731065 -47.9760205620764)"><path d="M9.8 -70.45 C9.42 -77.12, 6.46 -85.13, 2.43 -96.31 M11.31 -68.9 C7.74 -75.05, 7.4 -81.66, 0.77 -98.39" stroke="#000000" stroke-width="1" fill="none"></path></g><g transform="translate(484.7999859123788 214.46634233541633) rotate(0 -0.1629508821731065 -47.9760205620764)"><path d="M-10.72 -70.78 C-5.87 -77.38, -3.61 -85.3, 2.43 -96.31 M-9.2 -69.23 C-8.27 -75.25, -4.08 -81.79, 0.77 -98.39" stroke="#000000" stroke-width="1" fill="none"></path></g></g><g transform="translate(206.7057204572368 152.69258902431102) rotate(0 93.5 25)"><text x="0" y="18" font-family="Virgil, Segoe UI Emoji" font-size="20px" fill="#000000" text-anchor="start" style="white-space: pre;" direction="ltr">Local Image picked</text><text x="0" y="43" font-family="Virgil, Segoe UI Emoji" font-size="20px" fill="#000000" text-anchor="start" style="white-space: pre;" direction="ltr">event</text></g><g transform="translate(498.3569416830169 155.68334941926406) rotate(0 153.5 25)"><text x="0" y="18" font-family="Virgil, Segoe UI Emoji" font-size="20px" fill="#000000" text-anchor="start" style="white-space: pre;" direction="ltr">Emit state with the image url </text><text x="0" y="43" font-family="Virgil, Segoe UI Emoji" font-size="20px" fill="#000000" text-anchor="start" style="white-space: pre;" direction="ltr">from server</text></g><g stroke-linecap="round" transform="translate(10 269.9289938414167) rotate(0 99.28848266601562 55)"><path d="M-0.45 0.66 C66.1 3.14, 127.5 1.1, 200.34 -0.27 M0.52 -0.18 C72.23 -1.67, 145.58 -0.11, 197.72 -0.93 M197.59 0.89 C199.41 36.31, 200.86 72.48, 197.32 110.19 M197.73 -0.18 C198.47 40.73, 199.93 81.13, 199.54 110.54 M198.23 109.07 C134.05 108.79, 69.95 110.07, -0.9 108.13 M199.14 109.8 C147.2 110.68, 94.38 111.52, 0.18 110.55 M1.19 110.87 C-0.07 78.94, -0.4 45.93, -1.84 -0.09 M0.2 109.8 C0.9 84.26, 0.9 59.16, 0.67 0.06" stroke="#000000" stroke-width="1" fill="none"></path></g><g transform="translate(25.288482666015625 274.9289938414167) rotate(0 84 50)"><text x="84" y="18" font-family="Virgil, Segoe UI Emoji" font-size="20px" fill="#000000" text-anchor="middle" style="white-space: pre;" direction="ltr">Add local picked </text><text x="84" y="43" font-family="Virgil, Segoe UI Emoji" font-size="20px" fill="#000000" text-anchor="middle" style="white-space: pre;" direction="ltr">image to state</text><text x="84" y="68" font-family="Virgil, Segoe UI Emoji" font-size="20px" fill="#000000" text-anchor="middle" style="white-space: pre;" direction="ltr">for visual </text><text x="84" y="93" font-family="Virgil, Segoe UI Emoji" font-size="20px" fill="#000000" text-anchor="middle" style="white-space: pre;" direction="ltr">feedback</text></g><g stroke-linecap="round"><g transform="translate(365.2459716796875 244.24243988633856) rotate(0 -78.24829101868437 40.74907552078366)"><path d="M-0.37 -0.93 C-26.53 12.66, -131.93 68.69, -158.13 82.43 M1.63 1.19 C-24.06 14.4, -129.26 67.22, -155.97 80.83" stroke="#000000" stroke-width="1" fill="none"></path></g><g transform="translate(365.2459716796875 244.24243988633856) rotate(0 -78.24829101868437 40.74907552078366)"><path d="M-136.99 57.22 C-137.77 62.48, -143.49 69.69, -155.76 82.04 M-134.49 58.48 C-141.44 65.29, -147.48 73.38, -155.82 80.59" stroke="#000000" stroke-width="1" fill="none"></path></g><g transform="translate(365.2459716796875 244.24243988633856) rotate(0 -78.24829101868437 40.74907552078366)"><path d="M-127.73 75.53 C-130.52 77.06, -138.11 80.55, -155.76 82.04 M-125.23 76.79 C-135.32 77.82, -144.33 80.03, -155.82 80.59" stroke="#000000" stroke-width="1" fill="none"></path></g></g><g stroke-linecap="round"><g transform="translate(808.8897953586245 47.37611446033256) rotate(0 -1.570945877244526 355.9898666086936)"><path d="M-0.04 0.72 C-0.47 119.16, -2.66 592.7, -3.11 711.26" stroke="#000000" stroke-width="1.5" fill="none" stroke-dasharray="8 9"></path></g></g><g transform="translate(1033.0410790784365 10) rotate(0 67.5 23)"><text x="0" y="32" font-family="Virgil, Segoe UI Emoji" font-size="36px" fill="#000000" text-anchor="start" style="white-space: pre;" direction="ltr">Isolate</text></g><g stroke-linecap="round"><g transform="translate(550.2110147378958 436.26130241897357) rotate(0 212.1938888020983 -72.92362911063304)"><path d="M-0.75 -1.16 C70.29 -25.1, 354.47 -120.7, 425.14 -144.69" stroke="#000000" stroke-width="1.5" fill="none" stroke-dasharray="8 9"></path></g><g transform="translate(550.2110147378958 436.26130241897357) rotate(0 212.1938888020983 -72.92362911063304)"><path d="M399.79 -124.61 C408.1 -131.46, 412.25 -135.01, 425.58 -145" stroke="#000000" stroke-width="1.5" fill="none"></path></g><g transform="translate(550.2110147378958 436.26130241897357) rotate(0 212.1938888020983 -72.92362911063304)"><path d="M393.22 -144.05 C402.72 -146.87, 408.22 -146.42, 425.58 -145" stroke="#000000" stroke-width="1.5" fill="none"></path></g></g><g stroke-linecap="round" transform="translate(984.1835218371464 201.7581445499195) rotate(0 138 42.5)"><path d="M-0.41 0.54 C68.59 -0.19, 136.9 0.85, 277.33 -0.31 M-0.45 -0.21 C63.83 -1.66, 126.79 -1.17, 276.61 -0.42 M274.36 0.83 C274.79 17.54, 277.5 38.84, 277 83.66 M275.84 0.07 C275.51 21.41, 276.06 43.73, 276.78 85.76 M276.87 84.3 C200.91 86.89, 121.59 86.62, -0.53 85.18 M275.26 85.59 C179.19 87.49, 83.19 86.97, 0.13 84.67 M-0.86 83.81 C2.24 57.73, 2.19 26.49, -1.21 -0.8 M0.33 85.8 C0.12 54.72, 0.4 24.59, 0.12 -0.6" stroke="#000000" stroke-width="1" fill="none"></path></g><g transform="translate(996.0990821311179 206.7581445499195) rotate(0 125.5 37.5)"><text x="125.5" y="18" font-family="Virgil, Segoe UI Emoji" font-size="20px" fill="#000000" text-anchor="middle" style="white-space: pre;" direction="ltr">Parse the arguments to </text><text x="125.5" y="43" font-family="Virgil, Segoe UI Emoji" font-size="20px" fill="#000000" text-anchor="middle" style="white-space: pre;" direction="ltr">extract image bytes, </text><text x="125.5" y="68" font-family="Virgil, Segoe UI Emoji" font-size="20px" fill="#000000" text-anchor="middle" style="white-space: pre;" direction="ltr">metadata (ex: file name)</text></g><g transform="translate(636.7524429733137 311.39201275655034) rotate(0 72 25)"><text x="0" y="18" font-family="Virgil, Segoe UI Emoji" font-size="20px" fill="#000000" text-anchor="start" style="white-space: pre;" direction="ltr">Image bytes</text><text x="0" y="43" font-family="Virgil, Segoe UI Emoji" font-size="20px" fill="#000000" text-anchor="start" style="white-space: pre;" direction="ltr">and metadata</text></g><g stroke-linecap="round" transform="translate(999.747968553 391.68632417367303) rotate(0 132 61.941571450591766)"><path d="M-1.03 -0.67 C67.7 0.35, 135.86 -0.03, 262.81 0.85 M0.56 0.64 C80.39 -1.71, 161.54 -2.6, 263.24 0.15 M265.44 -1.3 C264.31 38.21, 263.08 76.84, 263.38 124.91 M264.86 -0.39 C265.63 31.22, 264.3 62.01, 264.4 123.45 M263.6 124.07 C159.94 124.87, 54.41 123.81, -1.36 125.02 M263.87 124.02 C184.31 125.79, 105.07 124.51, -0.51 123.78 M0.25 123.61 C-0.17 78.28, -1.88 35.23, -0.43 -0.42 M-0.6 123.58 C0.32 93.6, 0.52 64.42, 0.43 -0.05" stroke="#000000" stroke-width="1" fill="none"></path></g><g transform="translate(1025.1807967031498 428.6278956242648) rotate(0 106 25)"><text x="106" y="18" font-family="Virgil, Segoe UI Emoji" font-size="20px" fill="#000000" text-anchor="middle" style="white-space: pre;" direction="ltr">Upload the image to </text><text x="106" y="43" font-family="Virgil, Segoe UI Emoji" font-size="20px" fill="#000000" text-anchor="middle" style="white-space: pre;" direction="ltr">server</text></g><g stroke-linecap="round" transform="translate(1020.2012298835434 585.531184263986) rotate(0 120.60856934265507 67.92276894693816)"><path d="M-0.29 -0.36 C83.24 -0.23, 166.61 2.01, 240.22 -0.5 M-0.08 0.36 C69.52 -0.04, 139.58 0.27, 241.85 0.2 M239.99 -1.83 C244.18 30.52, 244.05 62.94, 242.34 137.45 M240.67 0.27 C242.27 47.52, 242.73 96.61, 240.59 135.87 M241.92 134.8 C183.69 133.41, 128.48 134.64, -1.64 137.47 M241.13 135.15 C168.65 135.7, 96.46 135.67, 0 136.3 M-0.72 134.61 C0.46 93.36, 0.72 51.36, 1.1 0.43 M-0.97 136.31 C0.19 81.55, -0.63 27.66, 0.63 -0.89" stroke="#000000" stroke-width="1" fill="none"></path></g><g transform="translate(1034.3097992261985 603.453953210924) rotate(0 106.5 50)"><text x="106.5" y="18" font-family="Virgil, Segoe UI Emoji" font-size="20px" fill="#000000" text-anchor="middle" style="white-space: pre;" direction="ltr">Send back the media </text><text x="106.5" y="43" font-family="Virgil, Segoe UI Emoji" font-size="20px" fill="#000000" text-anchor="middle" style="white-space: pre;" direction="ltr">object response </text><text x="106.5" y="68" font-family="Virgil, Segoe UI Emoji" font-size="20px" fill="#000000" text-anchor="middle" style="white-space: pre;" direction="ltr">containing the image </text><text x="106.5" y="93" font-family="Virgil, Segoe UI Emoji" font-size="20px" fill="#000000" text-anchor="middle" style="white-space: pre;" direction="ltr">url</text></g><g stroke-linecap="round"><g transform="translate(1119.615277154139 288.07124446703756) rotate(0 1.2029825535439613 55.36792725008648)"><path d="M0.53 0.88 C1.05 19.25, 2.82 92.52, 3.06 110.45 M-0.65 0.29 C-0.24 18.34, 2.11 90.76, 2.37 108.93" stroke="#000000" stroke-width="1" fill="none"></path></g><g transform="translate(1119.615277154139 288.07124446703756) rotate(0 1.2029825535439613 55.36792725008648)"><path d="M-7.12 81.83 C-3.38 88.2, -3.47 97.17, 0.56 108.7 M-9.29 80.45 C-5.94 89.14, -1.77 97.39, 1.42 109.42" stroke="#000000" stroke-width="1" fill="none"></path></g><g transform="translate(1119.615277154139 288.07124446703756) rotate(0 1.2029825535439613 55.36792725008648)"><path d="M13.4 81.32 C11.09 87.94, 4.96 97.06, 0.56 108.7 M11.23 79.95 C8.7 88.92, 6.99 97.31, 1.42 109.42" stroke="#000000" stroke-width="1" fill="none"></path></g></g><g stroke-linecap="round"><g transform="translate(1124.794374240417 518.3333931887416) rotate(0 1.0730635651607372 37.490615343998854)"><path d="M-0.27 0.18 C0.08 12.99, 2.12 63.33, 2.42 75.75 M1.79 -0.77 C1.95 11.83, 1.15 61.43, 1.51 74.24" stroke="#000000" stroke-width="1" fill="none"></path></g><g transform="translate(1124.794374240417 518.3333931887416) rotate(0 1.0730635651607372 37.490615343998854)"><path d="M-8.54 46.22 C-3.74 53.96, -2.07 65.46, 0.86 76.03 M-8.37 45.62 C-4.65 56.13, -0.98 67.44, 0.86 73.68" stroke="#000000" stroke-width="1" fill="none"></path></g><g transform="translate(1124.794374240417 518.3333931887416) rotate(0 1.0730635651607372 37.490615343998854)"><path d="M11.98 46.15 C10.03 53.86, 4.95 65.39, 0.86 76.03 M12.15 45.55 C8.29 56.17, 4.38 67.51, 0.86 73.68" stroke="#000000" stroke-width="1" fill="none"></path></g></g><g stroke-linecap="round"><g transform="translate(1020.646849892795 639.2498804434631) rotate(0 -238.15151739570223 3.6913463271778255)"><path d="M0.92 0.57 C-78.75 1.72, -397.51 5.77, -477.22 6.81" stroke="#000000" stroke-width="1.5" fill="none" stroke-dasharray="8 9"></path></g><g transform="translate(1020.646849892795 639.2498804434631) rotate(0 -238.15151739570223 3.6913463271778255)"><path d="M-448.22 -3.77 C-460.1 0.19, -470.42 3.24, -476.28 8.67" stroke="#000000" stroke-width="1.5" fill="none"></path></g><g transform="translate(1020.646849892795 639.2498804434631) rotate(0 -238.15151739570223 3.6913463271778255)"><path d="M-447.95 16.75 C-459.92 13.15, -470.34 8.66, -476.28 8.67" stroke="#000000" stroke-width="1.5" fill="none"></path></g></g><g transform="translate(583.0712025966222 659.0795078036192) rotate(0 105 12.5)"><text x="0" y="18" font-family="Virgil, Segoe UI Emoji" font-size="20px" fill="#000000" text-anchor="start" style="white-space: pre;" direction="ltr">Uploaded image data</text></g><g stroke-linecap="round"><g transform="translate(89.16801043500857 267.30564335882104) rotate(0 128.57639763655718 -91.10424614078178)"><path d="M-0.01 -0.04 C4.48 -23.32, -15.52 -108.82, 27.71 -139.17 C70.95 -169.53, 220.93 -175.34, 259.42 -182.16 M-1.47 -1.11 C2.77 -24.27, -16.7 -107.88, 26.69 -137.92 C70.07 -167.95, 220.19 -173.95, 258.86 -181.32" stroke="#000000" stroke-width="1" fill="none"></path></g><g transform="translate(89.16801043500857 267.30564335882104) rotate(0 128.57639763655718 -91.10424614078178)"><path d="M231.99 -168.08 C240.92 -172.13, 250.15 -178.35, 260.74 -181.4 M231.42 -167.47 C240.38 -171.05, 246.97 -175.7, 258.46 -181.24" stroke="#000000" stroke-width="1" fill="none"></path></g><g transform="translate(89.16801043500857 267.30564335882104) rotate(0 128.57639763655718 -91.10424614078178)"><path d="M229.59 -188.47 C239.48 -185.05, 249.59 -183.79, 260.74 -181.4 M229.02 -187.85 C238.7 -185.5, 245.99 -184.21, 258.46 -181.24" stroke="#000000" stroke-width="1" fill="none"></path></g></g></svg>